<?xml version="1.0" encoding="utf-8"?>
<!-- Generator: Adobe Illustrator 22.0.1, SVG Export Plug-In . SVG Version: 6.00 Build 0)  -->
<svg version="1.1" id="Calque_1" xmlns="http://www.w3.org/2000/svg" xmlns:xlink="http://www.w3.org/1999/xlink" x="0px" y="0px"
	 viewBox="0 0 72 72" style="enable-background:new 0 0 72 72;" xml:space="preserve">
<style type="text/css">
	.st0{fill:none;}
	.st1{fill:#00A6DF;}
</style>
<path class="st0" d="M53.1,67.7c6.2-3.4,11.4-8.5,14.7-14.8L53.1,67.7z"/>
<path class="st0" d="M19.9,68.2C19.9,68.2,19.9,68.2,19.9,68.2L19.9,68.2L19.9,68.2z"/>
<path class="st0" d="M12.2,9.7l3.4-3.4c-0.8,0.5-1.5,1.1-2.3,1.7l-4.5,4.5l-0.1-0.1c-0.7,0.8-1.3,1.6-1.9,2.4l5.3-5.3L12.2,9.7z"/>
<polygon class="st1" points="3.4,43.5 1.3,45.6 1.3,45.6 2.9,44 "/>
<path class="st1" d="M5.2,54L5,54.2c0,0,0,0,0,0.1L5.2,54L5.2,54z"/>
<path class="st1" d="M5.3,54.2l-0.2,0.2c0,0,0,0,0,0.1L5.3,54.2L5.3,54.2z"/>
<path class="st1" d="M16,61.9c-0.1-0.1-0.1-0.1-0.2-0.2l-1.1,1.1l0.2,0.2L16,61.9z"/>
<path class="st1" d="M34.6,70.5l-1.4,1.4c0.1,0,0.2,0,0.4,0l1.2-1.2L34.6,70.5z"/>
<path class="st1" d="M45.8,67.2l-2.3,2.2l0,0l-2.1,2.1c0,0,0.1,0,0.1,0l4.4-4.4C46,67.2,45.9,67.2,45.8,67.2z"/>
<path class="st1" d="M45.4,67.3l-4.3,4.3c0,0,0,0,0.1,0l4.4-4.3C45.5,67.3,45.5,67.3,45.4,67.3z"/>
<path class="st1" d="M68.2,52.1l-15.9,16c0.3-0.1,0.5-0.3,0.8-0.4l14.7-14.8C67.9,52.6,68.1,52.4,68.2,52.1z"/>
<path class="st1" d="M68.5,31.8l2.9-2.8c0-0.1,0-0.2-0.1-0.3l-2.8,2.8C68.4,31.6,68.4,31.7,68.5,31.8z"/>
<path class="st1" d="M62.4,12.2L62.2,12l-2,2c0.1,0.1,0.1,0.1,0.2,0.2L62.4,12.2z"/>
<path class="st1" d="M57.2,11.1l2.3-2.3c-0.1-0.1-0.1-0.1-0.2-0.2L57,10.9C57,10.9,57.1,11,57.2,11.1z"/>
<path class="st1" d="M52.9,8l2.4-2.4c-0.1,0-0.2-0.1-0.2-0.2l-2.4,2.4C52.8,7.9,52.8,7.9,52.9,8z"/>
<path class="st1" d="M36.5,3.3l3.1-3.1c0,0-0.1,0-0.1,0L36.5,3.3C36.5,3.3,36.5,3.3,36.5,3.3z"/>
<path class="st1" d="M36.2,3.3l3.1-3.1c0,0-0.1,0-0.1,0L36.2,3.3C36.2,3.3,36.2,3.3,36.2,3.3z"/>
<path class="st1" d="M27.9,2.7l2.3-2.3c-0.2,0-0.3,0.1-0.5,0.1l-2,2L27.9,2.7z"/>
<path class="st1" d="M21.9,6.5l3.4-3.4l0.1,0.1l-1.7,1.7l0,0l-1.3,1.3c0.1,0,0.1,0,0.2-0.1L27.7,1c-0.2,0-0.3,0.1-0.5,0.1L21.9,6.5
	C21.8,6.5,21.9,6.5,21.9,6.5z"/>
<path class="st1" d="M25.1,1.9l0.3-0.3c0,0-0.1,0-0.1,0L25.1,1.9L25.1,1.9z"/>
<path class="st1" d="M11.4,13.5l1.2-1.2l-0.2-0.2L20.4,4l0,0l1-1c-0.1,0-0.1,0.1-0.2,0.1L11.2,13.3L11.4,13.5z"/>
<path class="st1" d="M20.6,4.2L22,2.8c-0.1,0-0.1,0.1-0.2,0.1L20.6,4.2L20.6,4.2z"/>
<polygon class="st1" points="17.7,7.1 17.6,7 20.5,4.1 20.4,4 12.3,12.1 12.5,12.3 12.5,12.3 20.6,4.2 20.6,4.2 20.6,4.2 "/>
<rect x="8.7" y="9.4" transform="matrix(0.708 -0.7062 0.7062 0.708 -2.6661 12.5295)" class="st1" width="10.2" height="0.3"/>
<path class="st1" d="M6.6,18.8L2.4,23c0,0,0,0.1,0,0.1L6.6,18.8L6.6,18.8z"/>
<path class="st1" d="M6.8,18.9l-4.5,4.5c0,0.1-0.1,0.1-0.1,0.2L6.8,18.9L6.8,18.9z"/>
<path class="st1" d="M14.6,61.6l-1.9,1.9c0,0,0.1,0.1,0.1,0.1L14.6,61.6L14.6,61.6z"/>
<polygon class="st1" points="9.1,57.8 9.1,57.9 9.1,57.9 "/>
<polygon class="st1" points="10.6,56.6 10.6,56.6 9.2,57.9 "/>
<path class="st1" d="M7.6,54.6l0.9-0.9c0,0,0,0,0,0L7.6,54.6L7.6,54.6z"/>
<path class="st1" d="M7.5,52c0,0,0-0.1-0.1-0.1l-2.2,2.2L5,54.3c0,0,0,0.1,0.1,0.1l0.2-0.2L7.5,52z"/>
<path class="st1" d="M6.6,50.3l-2.4,2.4c0,0,0,0,0,0L6.6,50.3C6.6,50.4,6.6,50.3,6.6,50.3z"/>
<polygon class="st1" points="26.2,67.2 23.6,69.8 23.6,69.8 26.2,67.2 "/>
<path class="st1" d="M26.3,67.3l-2.6,2.6c0,0,0,0,0,0L26.3,67.3C26.3,67.3,26.3,67.3,26.3,67.3z"/>
<path class="st1" d="M29.4,68.1c-0.1,0-0.1,0-0.2,0l-0.9,0.9l0.1,0.1L29.4,68.1z"/>
<path class="st1" d="M37,69.6L34.7,72c0.1,0,0.1,0,0.2,0L37,69.6L37,69.6z"/>
<path class="st1" d="M42.5,68.1l-3.8,3.8c0.1,0,0.1,0,0.2,0l3.8-3.8C42.7,68,42.6,68.1,42.5,68.1z"/>
<polygon class="st1" points="52.2,64.4 50.4,66.3 50.3,66.2 46.6,69.9 46.7,70 52.2,64.4 "/>
<path class="st1" d="M52.2,64.4c-0.2,0.1-0.3,0.2-0.5,0.3l-1.5,1.5l0,0l0.1,0.1L52.2,64.4z"/>
<path class="st1" d="M59.2,59.1l10.6-10.6c0-0.1,0.1-0.2,0.1-0.3l-8.7,8.7C60.5,57.7,59.9,58.4,59.2,59.1z"/>
<path class="st1" d="M58.1,60.2L58.1,60.2l1-1C58.7,59.5,58.4,59.9,58.1,60.2z"/>
<path class="st1" d="M66.4,50l4.2-4.2c0-0.1,0.1-0.2,0.1-0.3L66.4,50L66.4,50z"/>
<path class="st1" d="M67.5,44.8l4.2-4.2c0-0.1,0-0.1,0-0.2l-4.1,4.1C67.6,44.6,67.5,44.7,67.5,44.8z"/>
<path class="st1" d="M68,42.7l3.8-3.8c0-0.1,0-0.1,0-0.2l-3.8,3.8C68.1,42.6,68.1,42.6,68,42.7z"/>
<path class="st1" d="M69.4,33.4l2.3-2.3c0-0.1,0-0.1,0-0.2L69.4,33.4L69.4,33.4z"/>
<path class="st1" d="M68,29.2c0,0.1,0,0.1,0,0.2l2.7-2.7c0,0,0-0.1,0-0.1l0,0L68,29.2z"/>
<path class="st1" d="M68.1,26.3l-0.6,0.6c0,0,0,0.1,0,0.2L68.1,26.3L68.1,26.3z"/>
<path class="st1" d="M66.8,25l1.9-1.9L68.7,23l-1.9,1.9C66.8,24.9,66.8,25,66.8,25z"/>
<path class="st1" d="M64.3,17.3l-0.9,0.9c0,0,0,0,0,0l2.4-2.4c0,0-0.1-0.1-0.1-0.1L64.3,17.3L64.3,17.3z"/>
<path class="st1" d="M64.2,17.2L64.2,17.2l-0.8,0.8c0,0,0.1,0.1,0.1,0.1L64.2,17.2L64.2,17.2z"/>
<rect x="55.2" y="7.6" transform="matrix(0.7071 -0.7071 0.7071 0.7071 10.9927 41.8126)" class="st1" width="1.5" height="0.1"/>
<path class="st1" d="M50.5,6.7l2.4-2.4c0,0-0.1,0-0.1-0.1l-2.4,2.4C50.4,6.6,50.4,6.6,50.5,6.7z"/>
<path class="st1" d="M49.2,6.1L49.2,6.1L49.2,6.1L49.2,6.1C49.2,6,49.2,6,49.2,6.1z"/>
<path class="st1" d="M49.2,6C49.2,6,49.2,6,49.2,6L49.2,6l2.5-2.5c0,0,0,0,0,0L49.2,6z"/>
<path class="st1" d="M49.2,6l2.5-2.5c0,0-0.1,0-0.1-0.1L49,6C49.1,6,49.1,6,49.2,6z"/>
<polygon class="st1" points="47.1,5.2 49,3.3 49,3.3 47.1,5.2 "/>
<path class="st1" d="M47.1,5.2L49,3.3l0.6-0.6c0,0-0.1,0-0.1-0.1L47,5.2C47,5.2,47.1,5.2,47.1,5.2z"/>
<path class="st1" d="M47.8,2.3L47.8,2.3l-2.5,2.3c0,0,0.1,0,0.2,0L47.8,2.3z"/>
<path class="st1" d="M36.4,3.3l3.1-3.1c-0.1,0-0.1,0-0.2,0l-3.1,3.1C36.3,3.3,36.4,3.3,36.4,3.3z"/>
<path class="st1" d="M30.4,3.7l2.4-2.4l-0.1-0.1l-2.6,2.6C30.3,3.8,30.4,3.8,30.4,3.7z"/>
<path class="st1" d="M27.2,4.5l2.1-2.1l0,0L27.2,4.5C27.2,4.5,27.2,4.5,27.2,4.5z"/>
<path class="st1" d="M25.2,1.6c-0.1,0-0.2,0.1-0.3,0.1l0.1,0.1L25.2,1.6z"/>
<path class="st1" d="M17.6,7L17.6,7l3-2.8l1.3-1.3C21.7,2.9,21.6,3,21.5,3l-1,1L17.6,7z"/>
<path class="st1" d="M16.5,5.8C16.5,5.8,16.4,5.8,16.5,5.8L16.5,5.8L16.5,5.8z"/>
<path class="st1" d="M16.6,6l0.9-0.9c-0.2,0.1-0.3,0.2-0.5,0.3L16.6,6L16.6,6z"/>
<polygon class="st1" points="49.7,4 50,4.3 50,4.3 49.7,4 48.1,5.6 48.1,5.6 "/>
<path class="st1" d="M48.1,5.6c0.1,0.1,0.3,0.1,0.4,0.2L50,4.3l0,0L49.7,4L48.1,5.6z"/>
<path class="st1" d="M51.6,6.3L51.6,6.3L51.1,7c0,0,0.1,0,0.1,0.1l1.5-1.5l-0.3-0.3l-1.6,1.6c0,0,0.1,0,0.1,0.1L51.6,6.3z"/>
<path class="st1" d="M54.7,9.2l0.8-0.8l-0.1-0.1l-0.1-0.1L55.3,8l-0.9,0.9C54.5,9,54.6,9.1,54.7,9.2z"/>
<path class="st1" d="M62.9,17.4l0.9-0.9l-0.2-0.2l-0.8,0.8C62.8,17.2,62.8,17.3,62.9,17.4z"/>
<path class="st1" d="M67.9,28.8l2.5-2.5L70.1,26l-2.3,2.3C67.8,28.4,67.9,28.6,67.9,28.8z"/>
<path class="st1" d="M31.4,68.4l-2.8,2.8c0.1,0,0.1,0,0.2,0l2.9-2.8C31.5,68.4,31.4,68.4,31.4,68.4z"/>
<path class="st1" d="M31.7,68.4l-2.9,2.8c0.1,0,0.1,0,0.2,0l2.9-2.9C31.8,68.5,31.8,68.4,31.7,68.4z"/>
<path class="st1" d="M18,63.3l-2.4,2.4c0.1,0.1,0.2,0.2,0.3,0.2l2.4-2.4C18.2,63.5,18.1,63.4,18,63.3z"/>
<path class="st1" d="M14.9,63l-0.2-0.2l0,0L13.4,64c0.1,0.1,0.2,0.2,0.3,0.3L14.9,63L14.9,63z"/>
<path class="st1" d="M13.9,60.2l-2.3,2.3c0,0,0.1,0.1,0.1,0.1l1-1l0.1,0.1l-1,1c0,0,0.1,0.1,0.1,0.1l2.3-2.3
	C14.1,60.4,14,60.3,13.9,60.2z"/>
<path class="st1" d="M6.1,49.2l-1.9,1.9L4.1,51L6,49.1C6,49,5.9,49,5.9,48.9l-2.5,2.5c0.1,0.1,0.1,0.3,0.2,0.4L6.1,49.2
	C6.1,49.3,6.1,49.2,6.1,49.2z"/>
<path class="st1" d="M3.8,42l-2.8,2.7c0,0.1,0,0.1,0,0.2l2.7-2.7C3.8,42.1,3.8,42,3.8,42z"/>
<path class="st1" d="M3.8,41.6L1,44.4c0,0.1,0,0.1,0,0.2l2.8-2.7C3.8,41.7,3.8,41.7,3.8,41.6z"/>
<path class="st1" d="M3.5,32.2L0,35.7c0,0.1,0,0.2,0,0.3c0,0.1,0,0.2,0,0.3l3.4-3.4C3.4,32.7,3.5,32.5,3.5,32.2z"/>
<path class="st1" d="M3.2,30.8L3.2,30.8l-3.1,2.9c0,0.1,0,0.1,0,0.2l2.3-2.3L3.2,30.8z"/>
<path class="st1" d="M3.3,30.9l-0.9,0.9L0,34.2c0,0.1,0,0.1,0,0.2L3.4,31L3.3,30.9z"/>
<path class="st1" d="M4.1,28.5l-4,4c0,0.1,0,0.1,0,0.2l2.5-2.4l0.1,0.1l-2.6,2.6c0,0.1,0,0.1,0,0.2L4,29.3C4,29,4.1,28.8,4.1,28.5z"
	/>
<path class="st1" d="M4.5,26.9c0-0.1,0.1-0.3,0.1-0.4l-4.3,4.3c0,0.1,0,0.2,0,0.3l2.3-2.3L4.5,26.9z"/>
<path class="st1" d="M4.5,27.2L2.7,29l-2.4,2.4c0,0.1,0,0.2,0,0.3l4.1-4.1C4.4,27.5,4.4,27.4,4.5,27.2z"/>
<path class="st1" d="M16.6,6L16.6,6l-4.1,4l0.1,0.1L5,17.7c0,0,0,0,0,0.1L16.6,6L16.6,6z"/>
<path class="st1" d="M12.3,9.8L16,6c-0.1,0.1-0.3,0.2-0.4,0.3L12.3,9.8L12.3,9.8z"/>
<path class="st1" d="M13.3,8C13.3,8,13.3,8,13.3,8l-2.2,2.2L11,10.1c-0.8,0.8-1.5,1.6-2.3,2.4l0.1,0.1L13.3,8z"/>
<path class="st1" d="M13.3,8c-0.8,0.6-1.6,1.3-2.3,2l0.1,0.1L13.3,8z"/>
<path class="st1" d="M47.9,5.5L50.4,3c-0.2-0.1-0.4-0.2-0.5-0.2l-2.5,2.5C47.5,5.4,47.7,5.4,47.9,5.5z"/>
<path class="st1" d="M64.4,18.9l2.1-2.1c-0.1-0.2-0.2-0.3-0.3-0.5L64,18.5L64.4,18.9z"/>
<path class="st1" d="M68.6,33.2l2.9-2.9c0-0.2-0.1-0.4-0.1-0.7l-2.9,2.9C68.6,32.7,68.6,32.9,68.6,33.2z"/>
<path class="st1" d="M39.7,68.5L36.3,72c0.1,0,0.2,0,0.3,0l3.5-3.5C40,68.5,39.8,68.5,39.7,68.5z"/>
<path class="st1" d="M39.2,68.6L35.8,72c0.1,0,0.2,0,0.2,0c0,0,0,0,0.1,0l3.4-3.5C39.4,68.5,39.3,68.6,39.2,68.6z"/>
<path class="st1" d="M19.5,67.8l-0.1,0.1c0.2,0.1,0.3,0.2,0.5,0.3l0,0L19.5,67.8z"/>
<path class="st1" d="M16.5,62.3l-2.3,2.3c0.1,0.1,0.3,0.2,0.4,0.3l2.3-2.3C16.8,62.5,16.7,62.4,16.5,62.3z"/>
<path class="st1" d="M6.8,50.8l-2.4,2.4c0.1,0.2,0.2,0.3,0.3,0.5l2.4-2.4C7,51.2,6.9,51,6.8,50.8z"/>
<path class="st1" d="M5.6,48l-2.5,2.5c0.1,0.2,0.2,0.4,0.2,0.5l2.5-2.5C5.7,48.4,5.6,48.2,5.6,48z"/>
<path class="st1" d="M3.4,39.1L0.5,42c0,0.1,0,0.2,0,0.2l2.9-2.9C3.4,39.2,3.4,39.2,3.4,39.1z"/>
<path class="st1" d="M2.9,39.4l0.6-0.5c0-0.1,0-0.2,0-0.3l-3,3c0,0.1,0,0.2,0,0.3L2.9,39.4L2.9,39.4z"/>
<path class="st1" d="M0.6,29.9L0.5,30c0,0.2-0.1,0.3-0.1,0.5l0.4-0.4L0.6,29.9z"/>
<path class="st1" d="M12.2,9.7l-0.1-0.1l-5.3,5.3c-0.3,0.4-0.6,0.9-0.9,1.3L12.2,9.7L12.2,9.7z"/>
<path class="st1" d="M12.5,10l-1.2,1.2l-0.1-0.1l-5.6,5.6c-0.2,0.3-0.4,0.6-0.6,1l7.6-7.6L12.5,10z"/>
<path class="st1" d="M18,8.6l5.6-5.6l0.1,0.1l-5.1,5.1c0.3-0.2,0.6-0.4,1-0.6L25.2,2l-0.1-0.1l0,0L25,1.7c-0.2,0.1-0.4,0.1-0.6,0.2
	l-7.6,7.6C17.2,9.2,17.6,8.9,18,8.6z"/>
<path class="st1" d="M43.4,4.1l2.6-2.6c-0.2-0.1-0.5-0.1-0.8-0.2L43,3.6L43.4,4.1z"/>
<path class="st1" d="M59.8,13.5l2.3-2.3c-0.2-0.2-0.3-0.3-0.5-0.5l-2.3,2.3C59.5,13.2,59.6,13.4,59.8,13.5z"/>
<path class="st1" d="M60,10.1l-0.5-0.5l-1.9,1.9c0.2,0.2,0.3,0.3,0.5,0.5L60,10.1z"/>
<path class="st1" d="M43,68.9l-0.5-0.5l-3.5,3.5c0.1,0,0.3,0,0.4,0l3.2-3.2l0.1,0.1l-3.1,3.1c0.1,0,0.3,0,0.4-0.1l3.6-3.6L43,68.9z"
	/>
<path class="st1" d="M43.8,68.1l0.5-0.5c-0.4,0.1-0.8,0.2-1.3,0.3l-0.4,0.4l0,0l0.5,0.5L43.8,68.1z"/>
<path class="st1" d="M50,66l0.7-0.7c-0.3,0.1-0.5,0.3-0.8,0.4l-0.2,0.2L50,66z"/>
<path class="st1" d="M65.1,51l5.7-5.7c0.1-0.5,0.3-1,0.4-1.5l-5,5C65.8,49.5,65.5,50.3,65.1,51z"/>
<path class="st1" d="M7.2,57.4l-0.1,0.1c0.1,0.1,0.1,0.2,0.2,0.3l0.1-0.1L7.2,57.4z"/>
<path class="st1" d="M7.6,57.7l-0.2,0.2c0.1,0.1,0.1,0.2,0.2,0.3l0.2-0.2L7.6,57.7z"/>
<path class="st1" d="M5.2,47.1l-2.5,2.5c0,0.1,0.1,0.2,0.1,0.4l2.5-2.5C5.3,47.3,5.3,47.2,5.2,47.1z"/>
<path class="st1" d="M5.2,47c0-0.1-0.1-0.2-0.1-0.4l-2.5,2.5c0,0.1,0.1,0.2,0.1,0.3L5.2,47z"/>
<path class="st1" d="M14.2,11.6c0.7-0.6,1.5-1.3,2.2-1.8L24.2,2c-0.6,0.2-1.2,0.4-1.9,0.7l-8.5,8.5L14.2,11.6z"/>
<path class="st1" d="M3.3,34.5L0,37.7c0,0.1,0,0.3,0,0.4L2.2,36l0.1,0.1l-1.1,1.1l0,0l-1.2,1.2c0,0.2,0,0.3,0,0.5l3.2-3.2
	C3.3,35.2,3.3,34.8,3.3,34.5z"/>
<path class="st1" d="M3.3,37L0.2,40c0,0.1,0,0.3,0.1,0.4l3-3C3.3,37.3,3.3,37.1,3.3,37z"/>
<path class="st1" d="M3.3,38.1c0-0.1,0-0.3,0-0.4l-3,3c0,0.1,0,0.1,0,0.2L0.5,41L3.3,38.1z"/>
<path class="st1" d="M4.6,45.4l-1,1l-0.1-0.1l1.1-1.1c0-0.1-0.1-0.3-0.1-0.4l-2.6,2.6C2,47.8,2.1,48,2.2,48.3l2.6-2.6
	C4.7,45.6,4.7,45.5,4.6,45.4z"/>
<path class="st1" d="M7.3,54.3l-0.6,0.6l0,0l-0.8,0.8C5.9,55.7,6,55.8,6,55.9l1.5-1.5L7.3,54.3z"/>
<path class="st1" d="M7.6,54.6L7.6,54.6L6.1,56c0.1,0.1,0.1,0.2,0.2,0.3l1.5-1.5L7.6,54.6z"/>
<path class="st1" d="M11.7,58l-2.3,2.3c0.1,0.1,0.2,0.2,0.2,0.2l2.3-2.3C11.9,58.1,11.8,58,11.7,58z"/>
<path class="st1" d="M11.4,57.6l-2.3,2.3c0.1,0.1,0.2,0.2,0.2,0.3l2.3-2.3C11.6,57.8,11.5,57.7,11.4,57.6z"/>
<path class="st1" d="M12.1,58.3l-2.3,2.3c0.2,0.2,0.4,0.4,0.6,0.6l2.3-2.3C12.4,58.7,12.2,58.5,12.1,58.3z"/>
<path class="st1" d="M11.7,60.6l0.6,0.6l1.3-1.3c-0.2-0.2-0.4-0.4-0.6-0.6L11.7,60.6z"/>
<path class="st1" d="M15,61.9l0.5-0.5c-0.2-0.2-0.4-0.3-0.6-0.5l-0.4,0.4l0.2,0.2l0.1,0.1L15,61.9z"/>
<path class="st1" d="M20.1,64.6L17.7,67c0.1,0.1,0.2,0.1,0.3,0.2l2.4-2.4C20.3,64.7,20.2,64.6,20.1,64.6z"/>
<path class="st1" d="M20.5,64.8l-2.4,2.4c0.1,0.1,0.2,0.1,0.3,0.2l2.4-2.4C20.7,64.9,20.6,64.9,20.5,64.8z"/>
<path class="st1" d="M21.7,65.4l-2.3,2.3l0.1,0.1l0.4,0.4l0,0c0,0,0.1,0,0.1,0.1l2.5-2.5C22.2,65.7,22,65.6,21.7,65.4z"/>
<path class="st1" d="M28.5,69L28.5,69l-0.3-0.3l-2,2c0.3,0.1,0.6,0.2,0.9,0.3l1.7-1.7L28.5,69z"/>
<path class="st1" d="M32.3,68.5l-2.9,2.9c0.1,0,0.3,0.1,0.4,0.1l2.8-2.8l0.1,0.1L30,71.5c0.1,0,0.3,0.1,0.4,0.1l3-3
	C33,68.6,32.7,68.6,32.3,68.5z"/>
<path class="st1" d="M37.3,70l1.4-1.4c-0.4,0-0.8,0.1-1.2,0.1l-0.7,0.7l0.2,0.2l0.1,0.1L37.3,70z"/>
<path class="st1" d="M41.1,68.3L37.4,72c0.2,0,0.3,0,0.5,0l3.7-3.7C41.5,68.3,41.3,68.3,41.1,68.3z"/>
<path class="st1" d="M40.9,68.4c-0.2,0-0.4,0-0.6,0.1L36.8,72c0.2,0,0.3,0,0.5,0L40.9,68.4z"/>
<path class="st1" d="M68.6,39c0,0.4-0.1,0.9-0.1,1.3l2.4-2.4l-0.6-0.6L68.6,39z"/>
<path class="st1" d="M69.1,33.1l-0.4,0.4c0,0.4,0.1,0.7,0.1,1.1l0.9-0.9l-0.3-0.3l-0.1-0.1L69.1,33.1z"/>
<path class="st1" d="M68.3,30.8l2.8-2.8c-0.1-0.3-0.1-0.6-0.2-0.9l-2.7,2.7C68.2,30.1,68.3,30.4,68.3,30.8z"/>
<path class="st1" d="M65.8,22.5l2.5-2.5c-0.1-0.3-0.3-0.5-0.4-0.8l-2.4,2.4C65.6,22,65.7,22.2,65.8,22.5z"/>
<path class="st1" d="M63.9,18.4l-0.2,0.2c0.1,0.2,0.3,0.5,0.4,0.7l0.3-0.3l-0.1-0.1L63.9,18.4L63.9,18.4z"/>
<path class="st1" d="M62.7,17.1l0.8-0.8l1.5-1.5c-0.2-0.2-0.3-0.4-0.5-0.7l-2.3,2.3C62.4,16.6,62.5,16.9,62.7,17.1z"/>
<path class="st1" d="M58.9,12.6l2.3-2.3c-0.2-0.2-0.4-0.4-0.6-0.6l-2.3,2.3C58.5,12.2,58.7,12.4,58.9,12.6z"/>
<path class="st1" d="M43,3.6L43,3.6l-0.4,0.3c0.3,0.1,0.6,0.1,0.9,0.2l0,0l0,0L43,3.6z"/>
<path class="st1" d="M41.3,3.4l-0.6-0.6L40,3.5c0.3,0,0.7,0.1,1,0.1L41.3,3.4z"/>
<path class="st1" d="M38.1,3.3L41,0.4l-0.1-0.1c-0.3,0-0.6-0.1-0.8-0.1L37,3.3C37.3,3.3,37.7,3.3,38.1,3.3z"/>
<path class="st1" d="M35.6,3.3l3.2-3.2c-0.4,0-0.7-0.1-1.1-0.1l-3.3,3.3C34.8,3.3,35.2,3.3,35.6,3.3z"/>
<path class="st1" d="M33.2,3.4l2.6-2.6l-0.6-0.6l-3.3,3.3C32.3,3.5,32.8,3.4,33.2,3.4z"/>
<path class="st1" d="M30.2,3.3l-0.6-0.6l-1.5,1.5c0.5-0.1,1-0.2,1.5-0.3L30.2,3.3z"/>
<path class="st1" d="M27.5,2.4l-3,3c0.6-0.2,1.2-0.4,1.8-0.6l1.8-1.8l-0.2-0.2l-0.2-0.2L27.5,2.4z"/>
<path class="st1" d="M23.6,4.9l-1.4,1.4c0,0,0.1,0,0.1-0.1L23.6,4.9L23.6,4.9z"/>
<path class="st1" d="M7.3,54.3l0.9-0.9c0,0-0.1-0.1-0.1-0.1l-1.5,1.5l0,0l0,0L7.3,54.3z"/>
<polygon class="st1" points="7.9,52.9 7.9,52.9 7.4,53.4 "/>
<polygon class="st1" points="5.5,55.1 5.5,55.1 7.6,53 "/>
<polygon class="st1" points="4.8,52.3 4.2,52.9 4.2,52.9 4.8,52.3 "/>
<path class="st1" d="M5.2,47.1c0,0,0-0.1,0-0.1l-2.5,2.5c0,0,0,0.1,0.1,0.1L5.2,47.1z"/>
<polygon class="st1" points="3.3,43.8 4,43.1 4,43.1 "/>
<polygon class="st1" points="1.3,45.6 1.3,45.6 2.9,44 "/>
<path class="st1" d="M3.8,41.8L1,44.5c0,0.1,0,0.1,0,0.2L3.8,42C3.8,41.9,3.8,41.9,3.8,41.8z"/>
<path class="st1" d="M3.6,40.5l-2.8,2.8c0,0.1,0,0.1,0,0.2l2.8-2.8C3.6,40.6,3.6,40.5,3.6,40.5z"/>
<polygon class="st1" points="2.9,39.4 3.4,38.9 3.4,38.9 2.9,39.4 "/>
<polygon class="st1" points="3.3,36.2 1.8,37.7 3.3,36.2 "/>
<polygon class="st1" points="0.2,39.5 0.2,39.5 2.2,37.5 "/>
<path class="st1" d="M2.8,36.9L2.8,36.9l0.5-0.7c0,0,0,0,0,0l-1.5,1.5l-1.6,1.6c0,0.1,0,0.1,0,0.2l2-2L2.8,36.9z"/>
<polygon class="st1" points="1.3,37.1 2.3,36.1 2.2,36 0.1,38.2 0.1,38.2 1.2,37.1 "/>
<path class="st1" d="M1.3,37.1L1.3,37.1l-1.2,1c0,0.1,0,0.1,0,0.2L1.3,37.1L1.3,37.1z"/>
<path class="st1" d="M2.7,30.3L2.7,30.3l-2.6,2.4c0,0.1,0,0.1,0,0.2L2.7,30.3z"/>
<path class="st1" d="M3.8,30.2C3.8,30.2,3.8,30.2,3.8,30.2l-0.6,0.6l-0.8,0.9L3.8,30.2z"/>
<path class="st1" d="M0,34.1C0,34.1,0,34.2,0,34.1l2.4-2.4L0,34.1z"/>
<path class="st1" d="M0.3,31.4C0.3,31.4,0.3,31.4,0.3,31.4L2.7,29L0.3,31.4z"/>
<path class="st1" d="M4.5,27C4.5,27,4.5,27,4.5,27l-1.9,1.9L4.5,27z"/>
<path class="st1" d="M4.6,26L4.6,26l-4,3.8c0,0.1,0,0.2,0,0.2l0.1-0.1L4.6,26z"/>
<path class="st1" d="M56.9,10.8l2-2l-0.6-0.6l-2.1,2.1C56.4,10.4,56.7,10.6,56.9,10.8z"/>
<path class="st1" d="M54,8.7l2.4-2.4c-0.2-0.2-0.5-0.3-0.7-0.5l-2.4,2.4C53.5,8.4,53.8,8.5,54,8.7z"/>
<path class="st1" d="M52.3,7.6l2.4-2.4l-0.1-0.1C54.4,5,54.2,4.9,54,4.8l-2.4,2.4C51.8,7.3,52.1,7.5,52.3,7.6z"/>
<path class="st1" d="M51.6,6.3L51,6.9c0,0,0.1,0,0.1,0.1L51.6,6.3L51.6,6.3z"/>
<path class="st1" d="M68.6,38.2l2.8-2.8l-0.1-0.1L68.7,38C68.7,38,68.7,38.1,68.6,38.2z"/>
<path class="st1" d="M43.6,69.5l2.3-2.2c-0.1,0-0.2,0.1-0.3,0.1l-4.4,4.3c0,0,0,0,0.1,0L43.6,69.5L43.6,69.5z"/>
<path class="st1" d="M50,65.6c-0.1,0.1-0.2,0.1-0.4,0.2L44.4,71c0.1,0,0.2,0,0.3-0.1l5.2-5.2L50,65.6z"/>
<path class="st1" d="M43.6,69.5L43.6,69.5l-2.3,2.2c0.1,0,0.1,0,0.2,0L43.6,69.5L43.6,69.5z"/>
<path class="st1" d="M42.8,68.6l-3.2,3.2c0.1,0,0.1,0,0.2,0L42.8,68.6L42.8,68.6z"/>
<path class="st1" d="M40.9,68.4L37.2,72c0.1,0,0.1,0,0.2,0l3.7-3.6C41,68.3,40.9,68.4,40.9,68.4z"/>
<path class="st1" d="M39.5,68.5L36.1,72c0.1,0,0.1,0,0.2,0l3.5-3.5C39.7,68.5,39.6,68.5,39.5,68.5z"/>
<path class="st1" d="M32.3,71.8C32.3,71.8,32.3,71.8,32.3,71.8l1.4-1.4L32.3,71.8z"/>
<polygon class="st1" points="34.9,69 33.6,70.3 34.9,69 "/>
<path class="st1" d="M35.4,68.7c-0.1,0-0.1,0-0.2,0L34.9,69l-1.3,1.3l-1.5,1.5c0.1,0,0.1,0,0.2,0l1.4-1.4L35.4,68.7z"/>
<path class="st1" d="M32.7,68.8L32.7,68.8l-2.9,2.7c0.1,0,0.1,0,0.2,0L32.7,68.8z"/>
<path class="st1" d="M31.5,68.4l-2.9,2.8c0.1,0,0.1,0,0.2,0l2.9-2.8C31.7,68.4,31.6,68.4,31.5,68.4z"/>
<path class="st1" d="M30.2,68.2L27.4,71c0.1,0,0.1,0,0.2,0l2.8-2.8C30.3,68.2,30.3,68.2,30.2,68.2z"/>
<path class="st1" d="M26.8,69.5L26.8,69.5l1.8-1.6c-0.1,0-0.1,0-0.2,0L26.8,69.5z"/>
<path class="st1" d="M26.9,67.4l-2.6,2.6c0,0,0.1,0,0.1,0l2.6-2.6C27,67.5,27,67.5,26.9,67.4z"/>
<path class="st1" d="M26.2,67.2l-2.6,2.6c0,0,0.1,0,0.1,0.1l2.6-2.6C26.3,67.3,26.2,67.2,26.2,67.2z"/>
<polygon class="st1" points="24.3,66.6 21.8,69.1 21.8,69.1 24.3,66.6 "/>
<path class="st1" d="M24.3,66.6l-2.5,2.5c0,0,0.1,0,0.1,0.1l2.5-2.5C24.4,66.6,24.4,66.6,24.3,66.6z"/>
<path class="st1" d="M22.1,66.9l0.9-0.9c0,0-0.1,0-0.1-0.1l-2.5,2.5c0,0,0,0,0,0L22.1,66.9L22.1,66.9z"/>
<path class="st1" d="M22.1,66.9L22.1,66.9l-1.7,1.5c0,0,0.1,0,0.1,0.1L22.1,66.9L22.1,66.9z"/>
<path class="st1" d="M20.4,64.8L18,67.2c0,0,0.1,0,0.1,0.1l2.4-2.4C20.5,64.8,20.4,64.8,20.4,64.8z"/>
<polygon class="st1" points="18.9,63.9 16.5,66.3 16.5,66.3 18.9,63.9 "/>
<path class="st1" d="M19,64l-2.4,2.4c0,0,0,0,0,0L19,64C19,64,19,64,19,64z"/>
<path class="st1" d="M18.9,63.9l-2.4,2.4c0,0,0.1,0.1,0.1,0.1L19,64C19,64,18.9,63.9,18.9,63.9z"/>
<path class="st1" d="M17.2,62.7l-2.3,2.3c0,0,0.1,0.1,0.1,0.1l2.3-2.3C17.2,62.8,17.2,62.8,17.2,62.7z"/>
<path class="st1" d="M12.7,61.6l-1,1c0,0,0.1,0.1,0.1,0.1L12.7,61.6L12.7,61.6z"/>
<path class="st1" d="M11.6,57.8l-2.3,2.3c0,0,0.1,0.1,0.1,0.1l2.3-2.3C11.7,57.9,11.7,57.9,11.6,57.8z"/>
<path class="st1" d="M10.6,56.6c0,0-0.1-0.1-0.1-0.1l-1.3,1.4l-0.1,0.1L9.2,58l-0.9,0.9c0,0,0,0,0,0l1-1L10.6,56.6z"/>
<polygon class="st1" points="8.6,59.3 8.6,59.4 10.2,57.7 "/>
<polygon class="st1" points="11,57.1 11,57.1 10.2,57.9 "/>
<path class="st1" d="M11,57.1c0,0-0.1-0.1-0.1-0.1l-0.7,0.7l-1.6,1.6c0,0,0.1,0.1,0.1,0.1l1.5-1.5L11,57.1z"/>
<path class="st1" d="M9.1,57.9L9.1,57.9L9.1,57.9l-0.9,0.9c0,0,0.1,0.1,0.1,0.1L9.1,57.9L9.1,57.9z"/>
<path class="st1" d="M9.7,55.5c0,0-0.1-0.1-0.1-0.1l-2.2,2.2l-0.1,0.1c0,0,0.1,0.1,0.1,0.1l0.2-0.2L9.7,55.5z"/>
<path class="st1" d="M9,54.5l-2.3,2.3c0,0,0.1,0.1,0.1,0.1l2.3-2.3C9.1,54.6,9,54.5,9,54.5z"/>
<path class="st1" d="M8.5,53.7c0,0-0.1-0.1-0.1-0.1l-0.9,0.9L6,55.9c0,0,0,0.1,0.1,0.1l1.5-1.5L8.5,53.7z"/>
<path class="st1" d="M7.9,52.9c0,0,0-0.1-0.1-0.1L7.6,53l-2.1,2.1c0,0,0.1,0.1,0.1,0.1l1.8-1.9L7.9,52.9z"/>
<path class="st1" d="M6.7,50.5c0,0,0-0.1-0.1-0.1l-2.4,2.4c0,0,0,0.1,0.1,0.1l0.6-0.6L6.7,50.5z"/>
<path class="st1" d="M4.2,51.1l1.9-1.9c0,0,0-0.1-0.1-0.1L4.2,51.1L4.2,51.1z"/>
<path class="st1" d="M3.5,46.3L3.5,46.3l1.1-0.9c0,0,0-0.1,0-0.1L3.5,46.3z"/>
<path class="st1" d="M4.3,44.3L1.7,47c0,0,0,0,0,0.1L4.3,44.3C4.3,44.3,4.3,44.3,4.3,44.3z"/>
<path class="st1" d="M4.4,44.4L1.7,47c0,0,0,0.1,0,0.1l2.6-2.7C4.4,44.5,4.4,44.4,4.4,44.4z"/>
<path class="st1" d="M4,43.1C4,43,4,43,4,42.9l-0.6,0.6L2.9,44l-1.6,1.6c0,0.1,0,0.1,0,0.2l2-2L4,43.1z"/>
<path class="st1" d="M3.4,38.9l-0.5,0.5l-2.4,2.4c0,0.1,0,0.1,0,0.2l2.9-2.9C3.4,39,3.4,38.9,3.4,38.9z"/>
<path class="st1" d="M3.3,37.4l-3,3c0,0,0,0,0,0L3.3,37.4C3.3,37.4,3.3,37.4,3.3,37.4z"/>
<path class="st1" d="M3.3,37.4l-3,3c0,0.1,0,0.1,0,0.2l3-3C3.3,37.6,3.3,37.5,3.3,37.4z"/>
<path class="st1" d="M2.8,36.9L2.8,36.9l0.5-0.5c0-0.1,0-0.1,0-0.2L2.8,36.9L2.8,36.9z"/>
<path class="st1" d="M2.4,31.8l0.9-0.9l0.5-0.5c0-0.1,0-0.2,0-0.2l-1.4,1.4l-2.3,2.3c0,0.1,0,0.1,0,0.2L2.4,31.8z"/>
<path class="st1" d="M4.5,27.2c0-0.1,0-0.2,0.1-0.3l-1.9,1.9l-2.3,2.3c0,0.1,0,0.1,0,0.2L2.7,29L4.5,27.2z"/>
<path class="st1" d="M6.4,22L1,27.4c0,0.1,0,0.2-0.1,0.3l5.3-5.3C6.3,22.3,6.3,22.2,6.4,22z"/>
<path class="st1" d="M25.4,3.2L25.4,3.2l-3.5,3.3c0.1-0.1,0.2-0.1,0.3-0.2l1.4-1.4L25.4,3.2z"/>
<path class="st1" d="M8.3,18.6l-0.2,0.2L8,18.7l-6.2,6.2c0,0.1-0.1,0.2-0.1,0.3l6.6-6.6C8.3,18.6,8.3,18.6,8.3,18.6z"/>
<path class="st1" d="M12.5,13.3c0.1-0.1,0.3-0.3,0.4-0.4c0,0,0,0,0,0l-0.1-0.1l-6.1,6.1l-4.3,4.3c0,0.1-0.1,0.2-0.1,0.3l4.5-4.5
	L12.5,13.3z"/>
<path class="st1" d="M11.2,11.1L11.2,11.1l5.3-5.3l0,0C16.3,5.9,16.2,6,16,6l-3.7,3.8L6,16.2c-0.1,0.2-0.2,0.4-0.3,0.5L11.2,11.1z"
	/>
<path class="st1" d="M11.1,11.1L11.1,11.1L11.1,11.1l1.3-1.1l4.1-4.1L17,5.4c-0.2,0.1-0.4,0.2-0.5,0.3l-0.1,0.1L11.1,11.1z"/>
<path class="st1" d="M23.6,3.1L18,8.6c0.2-0.1,0.4-0.2,0.5-0.3L23.6,3.1L23.6,3.1z"/>
<path class="st1" d="M8.3,18.6c0.1-0.2,0.2-0.4,0.3-0.5L8,18.7l0,0l0.1,0.1L8.3,18.6z"/>
<path class="st1" d="M27.2,4.5l2.1-2.1l2.1-2.1c-0.1,0-0.1,0-0.2,0l-4.2,4.2C27,4.5,27.1,4.5,27.2,4.5z"/>
<path class="st1" d="M39.1,3.4L42,0.5c-0.1,0-0.1,0-0.2,0l-2.9,2.9C39,3.4,39,3.4,39.1,3.4z"/>
</svg>
